# xmcd
# 
# Track frame offsets:
#     150
#     45369
#     82568
#     111066
#     145857
#     185519
#     220552
#     249020
# 
# Disc length: 3895
# 
# Revision: 1
# Processed by: cddbd v1.5.2PL0 Copyright (c) Steve Scherf et al.
# Submitted via: fre:ac v1.0.27
# 
DISCID=540f3508
DTITLE=Kenny Wheeler - What Now?
DYEAR=2004
DGENRE=Jazz
TTITLE0=Iowa City
TTITLE1=One Two Three
TTITLE2=March Mist
TTITLE3=The Lover Mourns
TTITLE4=The Sweet Yakity Waltz
TTITLE5=What Now?
TTITLE6=For Tracy
TTITLE7=Verona
EXTD=YEAR: 2004
EXTT0=
EXTT1=
EXTT2=
EXTT3=
EXTT4=
EXTT5=
EXTT6=
EXTT7=
PLAYORDER=
